<svg width="266" height="262" viewBox="0 0 266 262" fill="none" xmlns="http://www.w3.org/2000/svg">
<path d="M0.678907 0.589986H73.8489V32.72H39.0189V229.82H73.8489V261.95H0.678907V0.589986ZM127.279 183.11C134.659 183.11 139.879 182.39 142.939 180.95C145.999 179.51 147.529 176.72 147.529 172.58C147.529 169.34 145.549 166.55 141.589 164.21C137.629 161.69 131.599 158.9 123.499 155.84C117.199 153.5 111.439 151.07 106.219 148.55C101.179 146.03 96.8594 143.06 93.2594 139.64C89.6594 136.04 86.8694 131.81 84.8894 126.95C82.9094 122.09 81.9194 116.24 81.9194 109.4C81.9194 96.08 86.8694 85.55 96.7694 77.81C106.669 70.07 120.259 66.2 137.539 66.2C146.179 66.2 154.459 67.01 162.379 68.63C170.299 70.07 176.599 71.69 181.279 73.49L174.259 104.81C169.579 103.19 164.449 101.75 158.869 100.49C153.469 99.23 147.349 98.6 140.509 98.6C127.909 98.6 121.609 102.11 121.609 109.13C121.609 110.75 121.879 112.19 122.419 113.45C122.959 114.71 124.039 115.97 125.659 117.23C127.279 118.31 129.439 119.57 132.139 121.01C135.019 122.27 138.619 123.71 142.939 125.33C151.759 128.57 159.049 131.81 164.809 135.05C170.569 138.11 175.069 141.53 178.309 145.31C181.729 148.91 184.069 152.96 185.329 157.46C186.769 161.96 187.489 167.18 187.489 173.12C187.489 187.16 182.179 197.78 171.559 204.98C161.119 212.18 146.269 215.78 127.009 215.78C114.409 215.78 103.879 214.7 95.4194 212.54C87.1394 210.38 81.3794 208.58 78.1394 207.14L84.8894 174.47C91.7294 177.17 98.7494 179.33 105.949 180.95C113.149 182.39 120.259 183.11 127.279 183.11ZM265.296 261.95H192.126V229.82H226.956V32.72H192.126V0.589986H265.296V261.95Z" fill="black"/>
</svg>
