<svg width="72" height="20" viewBox="0 0 72 20" fill="none" xmlns="http://www.w3.org/2000/svg">
<g clip-path="url(#clip0_889_2)">
<path d="M7.05145 11.5166C7.05145 11.737 6.93003 11.9158 6.78024 11.9158C6.63046 11.9158 6.50903 11.737 6.50903 11.5166C6.50903 11.2961 6.63046 11.1174 6.78024 11.1174C6.93003 11.1174 7.05145 11.2961 7.05145 11.5166Z" fill="white"/>
<path d="M12.0688 11.5166C12.0688 11.737 12.1902 11.9158 12.34 11.9158C12.4898 11.9158 12.6112 11.737 12.6112 11.5166C12.6112 11.2961 12.4898 11.1174 12.34 11.1174C12.1902 11.1174 12.0688 11.2961 12.0688 11.5166Z" fill="white"/>
<path d="M10.1477 14.1113C9.69568 14.4661 9.08545 14.2887 8.92725 14.1113C8.97245 14.333 9.14422 14.6435 9.56007 14.6435C9.97592 14.6435 10.1251 14.2887 10.1477 14.1113Z" fill="white"/>
<path fill-rule="evenodd" clip-rule="evenodd" d="M17.3988 9.10975C17.9139 7.82318 18.4347 5.13638 17.3122 3.73256C17.7265 3.3112 18.6953 2.59266 19.2558 2.91201C19.1127 1.79577 17.9877 -0.358813 14.6453 0.0511718C13.9173 0.140468 13.3893 0.301305 12.8914 0.452963C11.6583 0.828624 10.6099 1.14797 7.1644 0.18423C4.47492 -0.414531 2.35046 1.24875 2.35046 2.95636C1.31108 3.68803 0.158772 5.63869 1.69391 9.11887C1.18731 9.29216 0.79805 9.71111 0.674336 10.2303H0.271208C0.121423 10.2303 0 10.3494 0 10.4964V11.2061C0 11.3531 0.121423 11.4722 0.271208 11.4722H0.632819V12.8472C0.632819 13.7046 1.34113 14.3996 2.21487 14.3996H7.18701C8.06075 14.3996 8.76907 13.7046 8.76907 12.8472V12.1375H10.3511V12.8472C10.3511 13.7046 11.0594 14.3996 11.9332 14.3996H16.9053C17.7791 14.3996 18.4874 13.7046 18.4874 12.8472V11.4722H18.8038C18.9536 11.4722 19.075 11.3531 19.075 11.2061V10.4964C19.075 10.3494 18.9536 10.2303 18.8038 10.2303H18.4459C18.3199 9.70176 17.9188 9.2771 17.3988 9.10975ZM2.83633 8.95659C2.84024 8.98277 2.84403 9.00816 2.84768 9.03274H7.18701C8.06075 9.03274 8.76907 9.72777 8.76907 10.5851V10.8956H10.3511V10.5851C10.3511 9.72777 11.0594 9.03274 11.9332 9.03274H16.153C16.3963 6.25763 16.1161 5.14054 15.8431 4.9523C12.5746 7.27059 9.65507 6.53372 8.75267 6.30595C8.50696 6.24394 8.41079 6.21966 8.49785 6.30509C8.76313 6.5654 9.36679 6.87777 9.79718 7.10048C9.89476 7.15098 9.98351 7.19691 10.0573 7.23653C6.50919 7.27678 5.08276 5.60033 4.66339 5.10744C4.62063 5.05718 4.58833 5.01923 4.56533 4.99666C4.36067 4.79584 3.20929 4.10957 2.84767 5.41802C2.49741 6.68541 2.71924 8.17191 2.83633 8.95659ZM4.52736 1.68732C5.70035 0.501901 7.93254 0.815025 8.7989 1.11072C6.92304 0.0462219 5.06977 0.667179 4.32395 1.02201C3.57813 1.37684 2.6289 2.5744 3.03571 2.97358C3.44252 3.37275 3.96234 2.44134 3.96234 2.44134C3.96234 2.44134 4.26788 1.94954 4.52736 1.68732ZM2.21487 9.91982H7.18701C7.56147 9.91982 7.86503 10.2177 7.86503 10.5851V12.8472C7.86503 13.2146 7.56147 13.5125 7.18701 13.5125H2.21487C1.84041 13.5125 1.53685 13.2146 1.53685 12.8472V10.5851C1.53685 10.2177 1.84041 9.91982 2.21487 9.91982ZM16.9053 9.91982H11.9332C11.5587 9.91982 11.2552 10.2177 11.2552 10.5851V12.8472C11.2552 13.2146 11.5587 13.5125 11.9332 13.5125H16.9053C17.2798 13.5125 17.5834 13.2146 17.5834 12.8472V10.5851C17.5834 10.2177 17.2798 9.91982 16.9053 9.91982Z" fill="white"/>
<path fill-rule="evenodd" clip-rule="evenodd" d="M8.6186 15.7277C8.63739 15.6439 8.7218 15.591 8.80713 15.6094L10.404 15.9544C10.4893 15.9728 10.5433 16.0557 10.5245 16.1394C10.5057 16.2231 10.4213 16.2761 10.336 16.2576L8.73909 15.9126C8.65376 15.8942 8.59982 15.8114 8.6186 15.7277Z" fill="white"/>
<path d="M9.53753 19.4115C6.39151 19.447 4.08321 16.6024 3.32232 15.1757C3.20933 14.9638 3.11893 14.9317 3.05113 14.9761C2.94264 15.0471 3.02098 15.1905 3.05112 15.2644C3.43081 16.1337 3.94761 16.8685 4.15855 17.1273C3.41725 18.3337 3.17165 19.5372 3.14152 19.9881C4.371 18.7994 5.61253 18.8571 6.07961 19.0345C9.74091 20.8973 11.775 19.5889 12.9276 19.0345C13.8497 18.5909 15.2856 19.4558 15.8883 19.9437C15.816 18.8438 15.2103 17.6373 14.9165 17.1716C15.3911 16.5507 15.7753 15.7966 15.9787 15.4196C16.1414 15.118 16.0917 14.9983 16.0465 14.9761C15.938 14.9229 15.8054 15.087 15.7527 15.1757C15.4137 15.7301 13.47 19.3671 9.53753 19.4115Z" fill="white"/>
<path d="M23.1754 4.36364L26.63 14.1591H26.7663L30.2209 4.36364H31.6982L27.4254 16H25.9709L21.6982 4.36364H23.1754ZM36.0618 16.1818C35.2739 16.1818 34.5826 15.9943 33.9879 15.6193C33.397 15.2443 32.9349 14.7197 32.6016 14.0455C32.272 13.3712 32.1072 12.5833 32.1072 11.6818C32.1072 10.7727 32.272 9.97917 32.6016 9.30114C32.9349 8.62311 33.397 8.09659 33.9879 7.72159C34.5826 7.34659 35.2739 7.15909 36.0618 7.15909C36.8497 7.15909 37.5391 7.34659 38.13 7.72159C38.7247 8.09659 39.1868 8.62311 39.5163 9.30114C39.8497 9.97917 40.0163 10.7727 40.0163 11.6818C40.0163 12.5833 39.8497 13.3712 39.5163 14.0455C39.1868 14.7197 38.7247 15.2443 38.13 15.6193C37.5391 15.9943 36.8497 16.1818 36.0618 16.1818ZM36.0618 14.9773C36.6603 14.9773 37.1527 14.8239 37.5391 14.517C37.9254 14.2102 38.2114 13.8068 38.397 13.3068C38.5826 12.8068 38.6754 12.2652 38.6754 11.6818C38.6754 11.0985 38.5826 10.5549 38.397 10.0511C38.2114 9.54735 37.9254 9.14015 37.5391 8.82955C37.1527 8.51894 36.6603 8.36364 36.0618 8.36364C35.4633 8.36364 34.9709 8.51894 34.5845 8.82955C34.1982 9.14015 33.9122 9.54735 33.7266 10.0511C33.541 10.5549 33.4482 11.0985 33.4482 11.6818C33.4482 12.2652 33.541 12.8068 33.7266 13.3068C33.9122 13.8068 34.1982 14.2102 34.5845 14.517C34.9709 14.8239 35.4633 14.9773 36.0618 14.9773ZM43.4041 4.36364V16H42.0632V4.36364H43.4041ZM47.1101 12.8182L47.0874 11.1591H47.3601L51.1783 7.27273H52.8374L48.7692 11.3864H48.6555L47.1101 12.8182ZM45.8601 16V4.36364H47.201V16H45.8601ZM51.4055 16L47.9964 11.6818L48.951 10.75L53.1101 16H51.4055ZM57.1314 16.2045C56.5784 16.2045 56.0765 16.1004 55.6257 15.892C55.175 15.6799 54.817 15.375 54.5518 14.9773C54.2867 14.5758 54.1541 14.0909 54.1541 13.5227C54.1541 13.0227 54.2526 12.6174 54.4496 12.3068C54.6465 11.9924 54.9098 11.7462 55.2393 11.5682C55.5689 11.3902 55.9325 11.2576 56.3303 11.1705C56.7318 11.0795 57.1352 11.0076 57.5405 10.9545C58.0708 10.8864 58.5007 10.8352 58.8303 10.8011C59.1636 10.7633 59.406 10.7008 59.5575 10.6136C59.7128 10.5265 59.7905 10.375 59.7905 10.1591V10.1136C59.7905 9.55303 59.6371 9.11742 59.3303 8.80682C59.0272 8.49621 58.567 8.34091 57.9496 8.34091C57.3094 8.34091 56.8075 8.48106 56.4439 8.76136C56.0803 9.04167 55.8246 9.34091 55.6768 9.65909L54.4041 9.20455C54.6314 8.67424 54.9344 8.26136 55.3132 7.96591C55.6958 7.66667 56.1125 7.45833 56.5632 7.34091C57.0178 7.2197 57.4647 7.15909 57.9041 7.15909C58.1844 7.15909 58.5064 7.19318 58.87 7.26136C59.2375 7.32576 59.5916 7.46023 59.9325 7.66477C60.2772 7.86932 60.5632 8.17803 60.7905 8.59091C61.0178 9.00379 61.1314 9.55682 61.1314 10.25V16H59.7905V14.8182H59.7223C59.6314 15.0076 59.4799 15.2102 59.2678 15.4261C59.0556 15.642 58.7734 15.8258 58.4212 15.9773C58.0689 16.1288 57.639 16.2045 57.1314 16.2045ZM57.3359 15C57.8662 15 58.3132 14.8958 58.6768 14.6875C59.0443 14.4792 59.3208 14.2102 59.5064 13.8807C59.6958 13.5511 59.7905 13.2045 59.7905 12.8409V11.6136C59.7337 11.6818 59.6087 11.7443 59.4155 11.8011C59.2261 11.8542 59.0064 11.9015 58.7564 11.9432C58.5102 11.9811 58.2696 12.0152 58.0348 12.0455C57.8037 12.072 57.6162 12.0947 57.4723 12.1136C57.1238 12.1591 56.7981 12.233 56.495 12.3352C56.1958 12.4337 55.9534 12.5833 55.7678 12.7841C55.5859 12.9811 55.495 13.25 55.495 13.5909C55.495 14.0568 55.6674 14.4091 56.0121 14.6477C56.3606 14.8826 56.8018 15 57.3359 15ZM64.9197 10.75V16H63.5788V7.27273H64.8743V8.63636H64.9879C65.1925 8.19318 65.5031 7.83712 65.9197 7.56818C66.3364 7.29545 66.8743 7.15909 67.5334 7.15909C68.1243 7.15909 68.6413 7.2803 69.0845 7.52273C69.5277 7.76136 69.8724 8.125 70.1186 8.61364C70.3648 9.09848 70.4879 9.71212 70.4879 10.4545V16H69.147V10.5455C69.147 9.85985 68.969 9.32576 68.6129 8.94318C68.2569 8.55682 67.7682 8.36364 67.147 8.36364C66.719 8.36364 66.3364 8.45644 65.9993 8.64205C65.666 8.82765 65.4027 9.09848 65.2095 9.45455C65.0163 9.81061 64.9197 10.2424 64.9197 10.75Z" fill="white"/>
</g>
<defs>
<clipPath id="clip0_889_2">
<rect width="72" height="20" fill="white"/>
</clipPath>
</defs>
</svg>
