<svg width="1413" height="262" viewBox="0 0 1413 262" fill="none" xmlns="http://www.w3.org/2000/svg">
<path d="M0.866407 0.589986H74.0364V32.72H39.2064V229.82H74.0364V261.95H0.866407V0.589986ZM127.467 183.11C134.847 183.11 140.067 182.39 143.127 180.95C146.187 179.51 147.717 176.72 147.717 172.58C147.717 169.34 145.737 166.55 141.777 164.21C137.817 161.69 131.787 158.9 123.687 155.84C117.387 153.5 111.627 151.07 106.407 148.55C101.367 146.03 97.0469 143.06 93.4469 139.64C89.8469 136.04 87.0569 131.81 85.0769 126.95C83.0969 122.09 82.1069 116.24 82.1069 109.4C82.1069 96.08 87.0569 85.55 96.9569 77.81C106.857 70.07 120.447 66.2 137.727 66.2C146.367 66.2 154.647 67.01 162.567 68.63C170.487 70.07 176.787 71.69 181.467 73.49L174.447 104.81C169.767 103.19 164.637 101.75 159.057 100.49C153.657 99.23 147.537 98.6 140.697 98.6C128.097 98.6 121.797 102.11 121.797 109.13C121.797 110.75 122.067 112.19 122.607 113.45C123.147 114.71 124.227 115.97 125.847 117.23C127.467 118.31 129.627 119.57 132.327 121.01C135.207 122.27 138.807 123.71 143.127 125.33C151.947 128.57 159.237 131.81 164.997 135.05C170.757 138.11 175.257 141.53 178.497 145.31C181.917 148.91 184.257 152.96 185.517 157.46C186.957 161.96 187.677 167.18 187.677 173.12C187.677 187.16 182.367 197.78 171.747 204.98C161.307 212.18 146.457 215.78 127.197 215.78C114.597 215.78 104.067 214.7 95.6069 212.54C87.3269 210.38 81.5669 208.58 78.3269 207.14L85.0769 174.47C91.9169 177.17 98.9369 179.33 106.137 180.95C113.337 182.39 120.447 183.11 127.467 183.11ZM265.483 261.95H192.313V229.82H227.143V32.72H192.313V0.589986H265.483V261.95ZM348.939 212H308.709V69.98H348.939V212ZM352.719 28.94C352.719 36.32 350.289 42.17 345.429 46.49C340.749 50.63 335.169 52.7 328.689 52.7C322.209 52.7 316.539 50.63 311.679 46.49C306.999 42.17 304.659 36.32 304.659 28.94C304.659 21.56 306.999 15.8 311.679 11.66C316.539 7.33999 322.209 5.17999 328.689 5.17999C335.169 5.17999 340.749 7.33999 345.429 11.66C350.289 15.8 352.719 21.56 352.719 28.94ZM477.745 139.91C477.745 113.99 468.205 101.03 449.125 101.03C444.985 101.03 440.845 101.57 436.705 102.65C432.745 103.73 429.505 105.08 426.985 106.7V179.87C428.965 180.23 431.485 180.59 434.545 180.95C437.605 181.13 440.935 181.22 444.535 181.22C455.515 181.22 463.795 177.44 469.375 169.88C474.955 162.32 477.745 152.33 477.745 139.91ZM518.785 140.99C518.785 152.33 517.075 162.59 513.655 171.77C510.415 180.95 505.645 188.78 499.345 195.26C493.045 201.74 485.305 206.78 476.125 210.38C466.945 213.8 456.505 215.51 444.805 215.51C439.945 215.51 434.815 215.24 429.415 214.7C424.195 214.34 418.975 213.8 413.755 213.08C408.715 212.36 403.855 211.55 399.175 210.65C394.495 209.57 390.355 208.49 386.755 207.41V8.95999L426.985 2.47999V73.22C431.485 71.24 436.165 69.71 441.025 68.63C445.885 67.55 451.105 67.01 456.685 67.01C466.765 67.01 475.675 68.81 483.415 72.41C491.155 75.83 497.635 80.78 502.855 87.26C508.075 93.74 512.035 101.57 514.735 110.75C517.435 119.75 518.785 129.83 518.785 140.99ZM542.955 142.07C542.955 129.47 544.845 118.49 548.625 109.13C552.585 99.59 557.715 91.67 564.015 85.37C570.315 79.07 577.515 74.3 585.615 71.06C593.895 67.82 602.355 66.2 610.995 66.2C631.155 66.2 647.085 72.41 658.785 84.83C670.485 97.07 676.335 115.16 676.335 139.1C676.335 141.44 676.245 144.05 676.065 146.93C675.885 149.63 675.705 152.06 675.525 154.22H584.265C585.165 162.5 589.035 169.07 595.875 173.93C602.715 178.79 611.895 181.22 623.415 181.22C630.795 181.22 637.995 180.59 645.015 179.33C652.215 177.89 658.065 176.18 662.565 174.2L667.965 206.87C665.805 207.95 662.925 209.03 659.325 210.11C655.725 211.19 651.675 212.09 647.175 212.81C642.855 213.71 638.175 214.43 633.135 214.97C628.095 215.51 623.055 215.78 618.015 215.78C605.235 215.78 594.075 213.89 584.535 210.11C575.175 206.33 567.345 201.2 561.045 194.72C554.925 188.06 550.335 180.23 547.275 171.23C544.395 162.23 542.955 152.51 542.955 142.07ZM637.455 126.68C637.275 123.26 636.645 119.93 635.565 116.69C634.665 113.45 633.135 110.57 630.975 108.05C628.995 105.53 626.385 103.46 623.145 101.84C620.085 100.22 616.215 99.41 611.535 99.41C607.035 99.41 603.165 100.22 599.925 101.84C596.685 103.28 593.985 105.26 591.825 107.78C589.665 110.3 587.955 113.27 586.695 116.69C585.615 119.93 584.805 123.26 584.265 126.68H637.455ZM792.97 105.62C789.37 104.72 785.14 103.82 780.28 102.92C775.42 101.84 770.2 101.3 764.62 101.3C762.1 101.3 759.04 101.57 755.44 102.11C752.02 102.47 749.41 102.92 747.61 103.46V212H707.38V77.54C714.58 75.02 723.04 72.68 732.76 70.52C742.66 68.18 753.64 67.01 765.7 67.01C767.86 67.01 770.47 67.19 773.53 67.55C776.59 67.73 779.65 68.09 782.71 68.63C785.77 68.99 788.83 69.53 791.89 70.25C794.95 70.79 797.56 71.51 799.72 72.41L792.97 105.62ZM861.517 121.28C865.477 116.96 869.527 112.46 873.667 107.78C877.987 103.1 882.127 98.51 886.087 94.01C890.047 89.33 893.737 84.92 897.157 80.78C900.757 76.64 903.817 73.04 906.337 69.98H954.127C944.587 80.96 935.227 91.49 926.047 101.57C917.047 111.47 907.147 121.73 896.347 132.35C901.747 137.21 907.327 143.06 913.087 149.9C918.847 156.56 924.427 163.49 929.827 170.69C935.227 177.89 940.177 185.09 944.677 192.29C949.177 199.49 952.957 206.06 956.017 212H909.847C906.967 207.32 903.637 202.19 899.857 196.61C896.257 190.85 892.387 185.18 888.247 179.6C884.107 173.84 879.697 168.35 875.017 163.13C870.517 157.91 866.017 153.5 861.517 149.9V212H821.287V8.95999L861.517 2.47999V121.28ZM1100.73 140.72C1100.73 151.88 1099.11 162.14 1095.87 171.5C1092.63 180.68 1087.95 188.6 1081.83 195.26C1075.71 201.74 1068.33 206.78 1059.69 210.38C1051.23 213.98 1041.69 215.78 1031.07 215.78C1020.63 215.78 1011.09 213.98 1002.45 210.38C993.988 206.78 986.698 201.74 980.578 195.26C974.458 188.6 969.688 180.68 966.268 171.5C962.848 162.14 961.138 151.88 961.138 140.72C961.138 129.56 962.848 119.39 966.268 110.21C969.868 101.03 974.728 93.2 980.848 86.72C987.148 80.24 994.528 75.2 1002.99 71.6C1011.63 68 1020.99 66.2 1031.07 66.2C1041.33 66.2 1050.69 68 1059.15 71.6C1067.79 75.2 1075.17 80.24 1081.29 86.72C1087.41 93.2 1092.18 101.03 1095.6 110.21C1099.02 119.39 1100.73 129.56 1100.73 140.72ZM1059.69 140.72C1059.69 128.3 1057.17 118.58 1052.13 111.56C1047.27 104.36 1040.25 100.76 1031.07 100.76C1021.89 100.76 1014.78 104.36 1009.74 111.56C1004.7 118.58 1002.18 128.3 1002.18 140.72C1002.18 153.14 1004.7 163.04 1009.74 170.42C1014.78 177.62 1021.89 181.22 1031.07 181.22C1040.25 181.22 1047.27 177.62 1052.13 170.42C1057.17 163.04 1059.69 153.14 1059.69 140.72ZM1222.88 139.91C1222.88 113.99 1213.34 101.03 1194.26 101.03C1190.12 101.03 1185.98 101.57 1181.84 102.65C1177.88 103.73 1174.64 105.08 1172.12 106.7V179.87C1174.1 180.23 1176.62 180.59 1179.68 180.95C1182.74 181.13 1186.07 181.22 1189.67 181.22C1200.65 181.22 1208.93 177.44 1214.51 169.88C1220.09 162.32 1222.88 152.33 1222.88 139.91ZM1263.92 140.99C1263.92 152.33 1262.21 162.59 1258.79 171.77C1255.55 180.95 1250.78 188.78 1244.48 195.26C1238.18 201.74 1230.44 206.78 1221.26 210.38C1212.08 213.8 1201.64 215.51 1189.94 215.51C1185.08 215.51 1179.95 215.24 1174.55 214.7C1169.33 214.34 1164.11 213.8 1158.89 213.08C1153.85 212.36 1148.99 211.55 1144.31 210.65C1139.63 209.57 1135.49 208.49 1131.89 207.41V8.95999L1172.12 2.47999V73.22C1176.62 71.24 1181.3 69.71 1186.16 68.63C1191.02 67.55 1196.24 67.01 1201.82 67.01C1211.9 67.01 1220.81 68.81 1228.55 72.41C1236.29 75.83 1242.77 80.78 1247.99 87.26C1253.21 93.74 1257.17 101.57 1259.87 110.75C1262.57 119.75 1263.92 129.83 1263.92 140.99ZM1335.07 212H1294.84V69.98H1335.07V212ZM1338.85 28.94C1338.85 36.32 1336.42 42.17 1331.56 46.49C1326.88 50.63 1321.3 52.7 1314.82 52.7C1308.34 52.7 1302.67 50.63 1297.81 46.49C1293.13 42.17 1290.79 36.32 1290.79 28.94C1290.79 21.56 1293.13 15.8 1297.81 11.66C1302.67 7.33999 1308.34 5.17999 1314.82 5.17999C1321.3 5.17999 1326.88 7.33999 1331.56 11.66C1336.42 15.8 1338.85 21.56 1338.85 28.94ZM1412.31 190.67C1412.31 198.77 1409.7 204.98 1404.48 209.3C1399.44 213.44 1393.68 215.51 1387.2 215.51C1380.72 215.51 1374.87 213.44 1369.65 209.3C1364.61 204.98 1362.09 198.77 1362.09 190.67C1362.09 182.57 1364.61 176.45 1369.65 172.31C1374.87 167.99 1380.72 165.83 1387.2 165.83C1393.68 165.83 1399.44 167.99 1404.48 172.31C1409.7 176.45 1412.31 182.57 1412.31 190.67Z" fill="#0095FF"/>
</svg>
